<svg width="299" height="147" viewBox="0 0 299 147" fill="none" xmlns="http://www.w3.org/2000/svg">
<path d="M2.68 5.798L20.387 1.547V86.832C20.387 96.184 23.173 101.758 28.747 103.549C26.007 108.747 21.331 111.341 14.721 111.341C6.692 111.341 2.68 105.772 2.68 94.626V5.798Z" fill="#0466C8"/>
<path d="M102.246 127.991C132.69 127.991 157.369 103.312 157.369 72.868C157.369 42.4244 132.69 17.745 102.246 17.745C71.8024 17.745 47.123 42.4244 47.123 72.868C47.123 103.312 71.8024 127.991 102.246 127.991Z" fill="#161945"/>
<path d="M230.395 35.307C227.682 33.911 224.399 32.645 220.527 32.645C212.31 32.645 205.721 35.431 200.761 41.002V34.061H183.051V109.926H200.761V66.717C200.761 61.333 202.357 56.777 205.545 53.045C208.731 49.316 212.429 48.092 216.489 47.447C220.524 46.808 227.257 47.377 230.281 50.574L230.394 50.209V35.307H230.395Z" fill="#0466C8"/>
<path d="M290.221 86.691V70.471C290.221 55.786 287.531 45.809 282.15 40.542C276.763 35.276 268.287 32.645 256.715 32.645C250.071 32.645 244.168 33.574 238.968 35.4V50.7C243.428 48.536 248.938 47.447 255.511 47.447C266.797 47.447 272.441 51.911 272.441 60.839C269.608 60.13 267.152 59.773 265.074 59.773C252.937 59.773 243.577 62.254 236.99 67.213C230.399 72.17 227.104 79.042 227.104 87.825C227.104 95.334 229.445 101.132 234.118 105.215C238.794 109.301 245.219 111.341 253.388 111.341C257.731 111.341 261.898 110.504 265.889 108.828C269.878 107.153 272.68 104.993 274.286 102.348C274.995 104.565 276.362 106.621 278.394 108.511C280.422 110.398 282.715 111.341 285.266 111.341C287.577 111.341 289.629 111.046 291.424 110.456C293.222 109.868 294.849 108.296 296.313 105.747C292.25 103.152 290.221 96.797 290.221 86.691ZM272.583 81.307C272.583 91.933 267.272 97.247 256.644 97.247C248.758 97.247 244.816 93.846 244.816 87.047C244.816 77.886 251.804 73.305 265.783 73.305C267.294 73.305 269.564 73.611 272.584 74.223V81.307H272.583Z" fill="#0466C8"/>
<path d="M168.036 86.691V70.471C168.036 55.786 165.343 45.809 159.957 40.542C154.578 35.276 146.097 32.645 134.527 32.645C127.887 32.645 121.978 33.574 116.78 35.4V50.7C121.236 48.536 126.749 47.447 133.322 47.447C144.61 47.447 150.251 51.911 150.251 60.839C147.419 60.13 144.965 59.773 142.887 59.773C130.749 59.773 121.388 62.254 114.799 67.213C108.212 72.17 104.918 79.042 104.918 87.825C104.918 95.334 107.258 101.132 111.931 105.215C116.608 109.301 123.03 111.341 131.198 111.341C135.543 111.341 139.71 110.504 143.701 108.828C147.691 107.153 150.489 104.993 152.095 102.348C152.803 104.565 154.175 106.621 156.201 108.511C158.233 110.398 160.528 111.341 163.077 111.341C165.388 111.341 167.444 111.046 169.238 110.456C171.033 109.868 172.661 108.296 174.124 105.747C170.064 103.152 168.036 96.797 168.036 86.691Z" fill="white"/>
<path d="M163.077 111.896C160.392 111.896 157.957 110.895 155.825 108.917C154.05 107.265 152.751 105.466 151.95 103.555C150.225 105.881 147.529 107.825 143.915 109.34C139.874 111.036 135.595 111.896 131.198 111.896C122.929 111.896 116.323 109.791 111.568 105.632C106.788 101.457 104.362 95.466 104.362 87.825C104.362 78.899 107.762 71.815 114.466 66.77C121.125 61.757 130.687 59.217 142.887 59.217C144.824 59.217 147.106 59.525 149.684 60.129C149.393 51.971 144.034 48.003 133.322 48.003C126.872 48.003 121.389 49.077 117.022 51.197L116.225 51.586V35.008L116.597 34.878C121.859 33.027 127.889 32.088 134.527 32.088C146.195 32.088 154.883 34.8 160.346 40.145C165.818 45.498 168.59 55.697 168.59 70.471V86.692C168.59 96.553 170.555 102.805 174.426 105.281L174.868 105.567L174.607 106.026C173.078 108.686 171.33 110.354 169.409 110.985C167.572 111.589 165.441 111.896 163.077 111.896ZM152.254 101.017L152.624 102.178C153.296 104.294 154.626 106.287 156.581 108.105C158.498 109.883 160.683 110.787 163.076 110.787C165.32 110.787 167.334 110.5 169.063 109.931C170.61 109.423 172.06 108.072 173.381 105.913C169.464 103.051 167.478 96.589 167.478 86.692V70.471C167.478 56.009 164.816 46.073 159.569 40.939C154.321 35.804 145.895 33.199 134.526 33.199C128.172 33.199 122.39 34.073 117.335 35.798V49.83C121.716 47.882 127.088 46.895 133.322 46.895C144.922 46.895 150.805 51.584 150.805 60.839V61.548L150.117 61.376C147.338 60.681 144.907 60.327 142.887 60.327C130.932 60.327 121.595 62.795 115.134 67.656C108.723 72.48 105.472 79.266 105.472 87.825C105.472 95.133 107.769 100.843 112.296 104.797C116.846 108.774 123.202 110.786 131.198 110.786C135.447 110.786 139.582 109.956 143.487 108.316C147.347 106.696 150.085 104.591 151.621 102.057L152.254 101.017Z" fill="#161945"/>
<path d="M150.393 81.307C150.393 91.933 145.08 97.247 134.456 97.247C126.57 97.247 122.627 93.846 122.627 87.047C122.627 77.886 129.616 73.305 143.594 73.305C145.103 73.305 147.371 73.611 150.392 74.223V81.307H150.393Z" fill="#161945"/>
<path d="M95.476 86.691V70.471C95.476 55.786 92.786 45.809 87.399 40.542C82.02 35.276 73.54 32.645 61.969 32.645C55.326 32.645 49.42 33.574 44.222 35.4V50.7C48.679 48.536 54.192 47.447 60.765 47.447C72.05 47.447 77.695 51.911 77.695 60.839C74.862 60.13 72.407 59.773 70.327 59.773C58.191 59.773 48.83 62.254 42.242 67.213C35.654 72.17 32.359 79.042 32.359 87.825C32.359 95.334 34.699 101.132 39.376 105.215C44.049 109.301 50.47 111.341 58.64 111.341C62.985 111.341 67.151 110.504 71.143 108.828C75.134 107.153 77.933 104.993 79.539 102.348C80.247 104.565 81.617 106.621 83.645 108.511C85.676 110.398 87.967 111.341 90.517 111.341C92.831 111.341 94.884 111.046 96.681 110.456C98.473 109.868 100.103 108.296 101.567 105.747C97.504 103.152 95.476 96.797 95.476 86.691Z" fill="white"/>
<path d="M90.518 111.896C87.836 111.896 85.397 110.895 83.27 108.917C81.495 107.265 80.196 105.467 79.395 103.555C77.671 105.881 74.974 107.825 71.359 109.34C67.317 111.036 63.038 111.896 58.641 111.896C50.371 111.896 43.766 109.791 39.012 105.632C34.229 101.457 31.805 95.467 31.805 87.825C31.805 78.899 35.203 71.815 41.908 66.77C48.567 61.757 58.128 59.217 70.329 59.217C72.267 59.217 74.552 59.525 77.129 60.129C76.84 51.971 71.479 48.003 60.766 48.003C54.317 48.003 48.832 49.077 44.466 51.197L43.67 51.586V35.008L44.039 34.878C49.301 33.027 55.335 32.088 61.971 32.088C73.641 32.088 82.328 34.8 87.789 40.145C93.258 45.495 96.032 55.697 96.032 70.471V86.692C96.032 96.553 97.995 102.807 101.868 105.281L102.313 105.567L102.05 106.026C100.519 108.686 98.773 110.354 96.857 110.985C95.012 111.589 92.881 111.896 90.518 111.896ZM79.697 101.017L80.068 102.178C80.742 104.294 82.075 106.288 84.025 108.105C85.942 109.883 88.127 110.787 90.518 110.787C92.765 110.787 94.778 110.5 96.509 109.931C98.055 109.423 99.505 108.072 100.827 105.913C96.909 103.051 94.922 96.589 94.922 86.692V70.471C94.922 56.008 92.261 46.073 87.013 40.939C81.764 35.804 73.338 33.199 61.97 33.199C55.615 33.199 49.834 34.073 44.779 35.798V49.83C49.158 47.882 54.531 46.895 60.766 46.895C72.368 46.895 78.251 51.584 78.251 60.839V61.548L77.561 61.376C74.782 60.681 72.349 60.327 70.329 60.327C58.377 60.327 49.038 62.795 42.577 67.656C36.167 72.481 32.915 79.267 32.915 87.825C32.915 95.133 35.211 100.843 39.742 104.797C44.287 108.774 50.648 110.786 58.641 110.786C62.891 110.786 67.025 109.956 70.93 108.316C74.791 106.696 77.529 104.59 79.065 102.057L79.697 101.017Z" fill="#161945"/>
<path d="M77.838 81.307C77.838 91.933 72.525 97.247 61.9 97.247C54.012 97.247 50.069 93.846 50.069 87.047C50.069 77.886 57.057 73.305 71.037 73.305C72.549 73.305 74.814 73.611 77.838 74.223V81.307Z" fill="#161945"/>
<path d="M186.726 138.78C185.668 139.908 184.246 140.477 182.459 140.486C181.501 140.486 180.731 140.132 180.153 139.414C179.573 138.694 179.37 137.803 179.555 136.732C179.771 135.448 180.497 134.36 181.732 133.471C182.965 132.581 184.423 132.133 186.103 132.123C186.558 132.121 187.058 132.225 187.6 132.425C187.951 130.38 187.242 129.358 185.475 129.365C184.124 129.372 183.018 129.751 182.161 130.511L181.566 128.636C182.037 128.288 182.654 127.989 183.422 127.739C184.192 127.487 184.904 127.361 185.568 127.359C187.341 127.352 188.556 127.763 189.213 128.595C189.876 129.427 190.054 130.751 189.741 132.572L188.971 137.107C188.783 138.214 188.976 138.956 189.548 139.322L189.36 140.445C188.478 140.448 187.84 140.321 187.446 140.064C187.055 139.807 186.818 139.379 186.726 138.78ZM187.331 134.022C186.675 133.868 186.207 133.79 185.935 133.79C184.84 133.795 183.897 134.089 183.109 134.674C182.315 135.261 181.854 135.951 181.72 136.747C181.496 138.061 182.134 138.714 183.63 138.71C184.727 138.705 185.786 138.163 186.815 137.08L187.331 134.022Z" fill="#0466C8"/>
<path d="M198.996 138.732C197.939 139.861 196.517 140.432 194.731 140.437C193.774 140.441 193.002 140.083 192.422 139.365C191.837 138.648 191.638 137.755 191.823 136.683C192.042 135.4 192.769 134.312 194 133.422C195.233 132.531 196.691 132.085 198.372 132.077C198.828 132.075 199.325 132.178 199.871 132.379C200.219 130.332 199.509 129.312 197.746 129.317C196.392 129.322 195.286 129.703 194.428 130.463L193.837 128.59C194.305 128.244 194.925 127.942 195.693 127.692C196.46 127.44 197.175 127.313 197.837 127.312C199.609 127.304 200.825 127.718 201.484 128.548C202.144 129.381 202.32 130.704 202.008 132.524L201.238 137.06C201.05 138.17 201.246 138.911 201.82 139.275L201.628 140.398C200.749 140.402 200.107 140.272 199.718 140.017C199.326 139.758 199.084 139.331 198.996 138.732ZM199.602 133.971C198.943 133.821 198.478 133.742 198.201 133.743C197.107 133.749 196.167 134.043 195.374 134.627C194.586 135.216 194.122 135.902 193.987 136.7C193.763 138.013 194.402 138.669 195.896 138.662C196.993 138.66 198.053 138.116 199.082 137.033L199.602 133.971Z" fill="#0466C8"/>
<path d="M211.264 138.686C210.206 139.816 208.785 140.385 206.998 140.391C206.04 140.394 205.27 140.036 204.69 139.319C204.108 138.601 203.909 137.706 204.092 136.635C204.309 135.353 205.036 134.264 206.27 133.376C207.504 132.486 208.961 132.036 210.642 132.03C211.095 132.029 211.596 132.13 212.138 132.332C212.49 130.284 211.777 129.265 210.014 129.273C208.66 129.275 207.554 129.658 206.7 130.417L206.107 128.542C206.576 128.193 207.192 127.895 207.961 127.643C208.731 127.393 209.444 127.266 210.105 127.266C211.877 127.26 213.093 127.672 213.752 128.503C214.411 129.333 214.588 130.657 214.28 132.478L213.507 137.015C213.319 138.123 213.515 138.863 214.089 139.231L213.897 140.351C213.019 140.355 212.38 140.228 211.987 139.97C211.593 139.71 211.352 139.285 211.264 138.686ZM211.87 133.926C211.214 133.772 210.742 133.695 210.47 133.696C209.378 133.7 208.435 133.996 207.644 134.58C206.853 135.165 206.392 135.856 206.254 136.652C206.03 137.965 206.669 138.622 208.169 138.613C209.261 138.612 210.32 138.067 211.353 136.985L211.87 133.926Z" fill="#161945"/>
<path d="M223.531 138.638C222.473 139.768 221.052 140.333 219.269 140.343C218.308 140.347 217.541 139.989 216.957 139.271C216.38 138.555 216.181 137.66 216.361 136.588C216.578 135.305 217.303 134.218 218.538 133.327C219.776 132.438 221.229 131.99 222.91 131.981C223.366 131.979 223.863 132.08 224.41 132.284C224.757 130.236 224.045 129.217 222.286 129.221C220.932 129.23 219.821 129.611 218.968 130.369L218.371 128.495C218.844 128.145 219.461 127.846 220.229 127.597C220.998 127.344 221.711 127.22 222.375 127.216C224.147 127.207 225.36 127.621 226.022 128.453C226.682 129.284 226.856 130.607 226.547 132.429L225.774 136.963C225.586 138.074 225.781 138.813 226.355 139.181L226.167 140.302C225.286 140.306 224.646 140.18 224.258 139.921C223.861 139.664 223.62 139.235 223.531 138.638ZM224.141 133.878C223.481 133.724 223.013 133.646 222.741 133.649C221.645 133.651 220.701 133.947 219.911 134.534C219.121 135.116 218.659 135.807 218.521 136.602C218.302 137.917 218.936 138.573 220.433 138.568C221.528 138.563 222.591 138.018 223.62 136.937L224.141 133.878Z" fill="#161945"/>
<path d="M236.181 140.04L237.533 132.091C237.691 131.146 237.593 130.405 237.238 129.861C236.884 129.321 236.298 129.051 235.486 129.054C234.959 129.056 234.404 129.219 233.823 129.537C233.243 129.859 232.775 130.232 232.421 130.661L230.824 140.061L228.658 140.069L231.682 122.236L233.852 122.227L232.736 128.805C233.104 128.34 233.633 127.95 234.331 127.637C235.025 127.324 235.713 127.163 236.398 127.159C237.687 127.154 238.627 127.593 239.213 128.472C239.798 129.352 239.957 130.555 239.697 132.083L238.346 140.03L236.181 140.04Z" fill="#161945"/>
<path d="M252.746 142.123C252.33 142.929 251.626 143.602 250.633 144.137C249.644 144.675 248.591 144.95 247.481 144.954L247.822 142.945C248.73 142.941 249.542 142.719 250.261 142.28C250.982 141.842 251.393 141.305 251.502 140.676C251.619 139.985 251.619 139.303 251.494 138.63C251.375 137.956 251.211 137.124 251.009 136.135L249.197 127.349L251.406 127.34L253.338 137.105L258.225 127.314L260.436 127.305L252.746 142.123Z" fill="#161945"/>
<path d="M271.289 133.8L262.486 133.835C262.234 135.316 262.432 136.452 263.078 137.246C263.656 137.934 264.486 138.278 265.573 138.272C266.811 138.268 267.906 137.89 268.864 137.139L269.503 138.753C269.109 139.102 268.545 139.403 267.809 139.656C266.886 139.989 265.889 140.16 264.83 140.165C263.291 140.17 262.082 139.635 261.193 138.56C260.203 137.377 259.876 135.781 260.217 133.776C260.571 131.689 261.468 130.012 262.904 128.748C264.192 127.618 265.586 127.05 267.078 127.042C268.822 127.037 270.103 127.539 270.915 128.551C271.709 129.524 271.968 130.818 271.694 132.433C271.608 132.927 271.473 133.383 271.289 133.8ZM266.86 128.933C265.896 128.937 265.031 129.261 264.269 129.912C263.542 130.526 263.056 131.292 262.819 132.208L269.581 132.181C269.736 131.276 269.591 130.522 269.143 129.914C268.659 129.256 267.896 128.928 266.86 128.933Z" fill="#161945"/>
<path d="M272.03 139.147L273.157 137.017C274.224 137.832 275.129 138.235 275.866 138.235C277.206 138.228 277.972 137.645 278.172 136.476C278.313 135.644 277.788 134.929 276.597 134.335C275.683 133.867 275.074 133.51 274.768 133.268C274.462 133.023 274.211 132.748 274.009 132.438C273.806 132.129 273.675 131.799 273.608 131.449C273.543 131.099 273.543 130.723 273.612 130.322C273.79 129.283 274.29 128.472 275.119 127.886C275.949 127.3 276.953 127.002 278.13 126.997C279.02 126.995 280.09 127.282 281.346 127.859L280.374 129.941C279.636 129.236 278.835 128.883 277.97 128.887C277.449 128.89 276.995 129.018 276.598 129.272C276.205 129.525 275.971 129.844 275.907 130.23C275.768 131.041 276.109 131.656 276.928 132.067L278.355 132.795C279.23 133.238 279.834 133.748 280.169 134.32C280.507 134.892 280.599 135.612 280.453 136.476C280.258 137.614 279.727 138.503 278.848 139.147C277.971 139.793 276.854 140.117 275.493 140.122C274.204 140.128 273.051 139.805 272.03 139.147Z" fill="#161945"/>
<path d="M285.556 136.532C286.028 136.53 286.404 136.702 286.676 137.046C286.952 137.392 287.048 137.809 286.967 138.297C286.882 138.785 286.644 139.205 286.251 139.559C285.856 139.909 285.424 140.084 284.952 140.087C284.482 140.089 284.109 139.913 283.832 139.567C283.556 139.216 283.464 138.798 283.546 138.31C283.627 137.821 283.868 137.404 284.261 137.055C284.655 136.709 285.083 136.534 285.556 136.532ZM286.091 135.337L285.279 135.341C285.367 131.384 285.541 128.632 285.804 127.091L286.626 122.245L289.203 122.236L288.381 127.067C288.126 128.573 287.364 131.326 286.091 135.337Z" fill="#161945"/>
</svg>
